grf
version=1
nRows=72
nColumns=10
inDegrees=yes
endheader
time	ground_force_3_vx	ground_force_3_vy	ground_force_3_vz	ground_force_3_px	ground_force_3_py	ground_force_3_pz	ground_moment_3_mx	ground_moment_3_my	ground_moment_3_mz
0.495000	72.756516	245.760828	-8.958003	0.910807	0.000000	-0.250334	-0.000000	0.909939	-0.000000
0.496000	72.502193	243.206671	-8.814673	0.910880	0.000000	-0.250358	-0.000000	0.896587	-0.000000
0.497000	72.224751	240.605524	-8.669337	0.910960	0.000000	-0.250380	-0.000000	0.883231	-0.000000
0.498000	71.924280	237.958440	-8.522096	0.911047	0.000000	-0.250400	-0.000000	0.869875	-0.000000
0.499000	71.600892	235.266518	-8.373050	0.911139	0.000000	-0.250418	-0.000000	0.856526	-0.000000
0.500000	71.254716	232.530898	-8.222304	0.911235	0.000000	-0.250433	-0.000000	0.843188	-0.000000
0.501000	70.885900	229.752762	-8.069963	0.911335	0.000000	-0.250447	-0.000000	0.829866	-0.000000
0.502000	70.494614	226.933334	-7.916132	0.911436	0.000000	-0.250459	-0.000000	0.816566	-0.000000
0.503000	70.081045	224.073880	-7.760920	0.911535	0.000000	-0.250470	-0.000000	0.803292	-0.000000
0.504000	69.645400	221.175701	-7.604435	0.911632	0.000000	-0.250480	-0.000000	0.790048	-0.000000
0.505000	69.187905	218.240140	-7.446788	0.911726	0.000000	-0.250491	-0.000000	0.776841	-0.000000
0.506000	68.708804	215.268575	-7.288089	0.911816	0.000000	-0.250502	-0.000000	0.763673	-0.000000
0.507000	68.208364	212.262418	-7.128449	0.911903	0.000000	-0.250513	-0.000000	0.750551	-0.000000
0.508000	67.686865	209.223119	-6.967982	0.911988	0.000000	-0.250523	-0.000000	0.737476	-0.000000
0.509000	67.144612	206.152157	-6.806799	0.912072	0.000000	-0.250533	-0.000000	0.724455	-0.000000
0.510000	66.581923	203.051044	-6.645014	0.912154	0.000000	-0.250540	-0.000000	0.711491	-0.000000
0.511000	65.999138	199.921323	-6.482741	0.912234	0.000000	-0.250546	-0.000000	0.698588	-0.000000
0.512000	65.396614	196.764565	-6.320092	0.912313	0.000000	-0.250550	-0.000000	0.685749	-0.000000
0.513000	64.774725	193.582365	-6.157181	0.912391	0.000000	-0.250552	-0.000000	0.672978	-0.000000
0.514000	64.133864	190.376347	-5.994121	0.912468	0.000000	-0.250551	-0.000000	0.660280	-0.000000
0.515000	63.474440	187.148157	-5.831025	0.912546	0.000000	-0.250548	-0.000000	0.647656	-0.000000
0.516000	62.796878	183.899462	-5.668006	0.912624	0.000000	-0.250543	-0.000000	0.635112	-0.000000
0.517000	62.101623	180.631950	-5.505174	0.912706	0.000000	-0.250535	-0.000000	0.622648	-0.000000
0.518000	61.389131	177.347327	-5.342641	0.912789	0.000000	-0.250525	-0.000000	0.610270	-0.000000
0.519000	60.659879	174.047316	-5.180517	0.912878	0.000000	-0.250514	-0.000000	0.597979	-0.000000
0.520000	59.914354	170.733653	-5.018910	0.912970	0.000000	-0.250500	-0.000000	0.585779	-0.000000
0.521000	59.153061	167.408089	-4.857928	0.913066	0.000000	-0.250485	-0.000000	0.573672	-0.000000
0.522000	58.376519	164.072384	-4.697678	0.913165	0.000000	-0.250467	-0.000000	0.561661	-0.000000
0.523000	57.585258	160.728308	-4.538265	0.913269	0.000000	-0.250448	-0.000000	0.549748	-0.000000
0.524000	56.779823	157.377636	-4.379791	0.913377	0.000000	-0.250426	-0.000000	0.537936	-0.000000
0.525000	55.960772	154.022151	-4.222359	0.913489	0.000000	-0.250403	-0.000000	0.526228	-0.000000
0.526000	55.128674	150.663636	-4.066068	0.913605	0.000000	-0.250378	-0.000000	0.514624	-0.000000
0.527000	54.284108	147.303877	-3.911016	0.913723	0.000000	-0.250351	-0.000000	0.503128	-0.000000
0.528000	53.427665	143.944658	-3.757299	0.913843	0.000000	-0.250324	-0.000000	0.491741	-0.000000
0.529000	52.559945	140.587760	-3.605010	0.913964	0.000000	-0.250297	-0.000000	0.480465	-0.000000
0.530000	51.681558	137.234959	-3.454240	0.914085	0.000000	-0.250270	-0.000000	0.469302	-0.000000
0.531000	50.793123	133.888024	-3.305079	0.914207	0.000000	-0.250243	-0.000000	0.458254	-0.000000
0.532000	49.895264	130.548716	-3.157613	0.914331	0.000000	-0.250218	-0.000000	0.447323	-0.000000
0.533000	48.988614	127.218783	-3.011926	0.914456	0.000000	-0.250193	-0.000000	0.436509	-0.000000
0.534000	48.073813	123.899961	-2.868099	0.914585	0.000000	-0.250169	-0.000000	0.425815	-0.000000
0.535000	47.151504	120.593972	-2.726210	0.914717	0.000000	-0.250145	-0.000000	0.415242	-0.000000
0.536000	46.222338	117.302521	-2.586336	0.914851	0.000000	-0.250122	-0.000000	0.404791	-0.000000
0.537000	45.286966	114.027292	-2.448548	0.914988	0.000000	-0.250097	-0.000000	0.394464	-0.000000
0.538000	44.346044	110.769951	-2.312916	0.915125	0.000000	-0.250072	-0.000000	0.384261	-0.000000
0.539000	43.400232	107.532141	-2.179508	0.915262	0.000000	-0.250045	-0.000000	0.374185	0.000000
0.540000	42.450189	104.315479	-2.048387	0.915398	0.000000	-0.250016	-0.000000	0.364235	0.000000
0.541000	41.496576	101.121559	-1.919614	0.915532	0.000000	-0.249987	-0.000000	0.354412	0.000000
0.542000	40.540053	97.951944	-1.793245	0.915665	0.000000	-0.249955	-0.000000	0.344719	0.000000
0.543000	39.581279	94.808172	-1.669336	0.915797	0.000000	-0.249924	-0.000000	0.335156	0.000000
0.544000	38.620914	91.691744	-1.547938	0.915927	0.000000	-0.249892	-0.000000	0.325722	0.000000
0.545000	37.659611	88.604134	-1.429097	0.916057	0.000000	-0.249860	-0.000000	0.316421	0.000000
0.546000	36.698023	85.546779	-1.312859	0.916184	0.000000	-0.249828	-0.000000	0.307251	0.000000
0.547000	35.736797	82.521081	-1.199265	0.916310	0.000000	-0.249797	-0.000000	0.298214	0.000000
0.548000	34.776579	79.528405	-1.088353	0.916434	0.000000	-0.249765	-0.000000	0.289310	0.000000
0.549000	33.818003	76.570077	-0.980158	0.916555	0.000000	-0.249734	-0.000000	0.280540	0.000000
0.550000	32.861703	73.647386	-0.874710	0.916674	0.000000	-0.249703	-0.000000	0.271904	0.000000
0.551000	31.908301	70.761576	-0.772039	0.916790	0.000000	-0.249673	-0.000000	0.263403	0.000000
0.552000	30.958414	67.913853	-0.672168	0.916903	0.000000	-0.249644	-0.000000	0.255037	0.000000
0.553000	30.012649	65.105379	-0.575119	0.917013	0.000000	-0.249617	-0.000000	0.246807	0.000000
0.554000	29.071606	62.337269	-0.480911	0.917121	0.000000	-0.249592	-0.000000	0.238713	0.000000
0.555000	28.135871	59.610597	-0.389559	0.917224	0.000000	-0.249570	-0.000000	0.230755	0.000000
0.556000	27.206024	56.926389	-0.301075	0.917322	0.000000	-0.249552	-0.000000	0.222933	0.000000
0.557000	26.282632	54.285625	-0.215468	0.917417	0.000000	-0.249538	-0.000000	0.215248	0.000000
0.558000	25.366248	51.689237	-0.132743	0.917508	0.000000	-0.249527	-0.000000	0.207700	0.000000
0.559000	24.457416	49.138110	-0.052903	0.917595	0.000000	-0.249521	-0.000000	0.200289	0.000000
0.560000	23.556666	46.633079	0.024052	0.917677	0.000000	-0.249521	-0.000000	0.193014	0.000000
0.561000	22.664513	44.174933	0.098126	0.917756	0.000000	-0.249526	-0.000000	0.185877	0.000000
0.562000	21.781460	41.764407	0.169324	0.917831	0.000000	-0.249536	-0.000000	0.178876	0.000000
0.563000	20.907995	39.402191	0.237655	0.917903	0.000000	-0.249552	-0.000000	0.172012	0.000000
0.564000	20.044591	37.088920	0.303132	0.917970	0.000000	-0.249573	-0.000000	0.165285	0.000000
0.565000	19.191706	34.825184	0.365769	0.918032	0.000000	-0.249600	-0.000000	0.158695	0.000000
0.566000	18.349781	32.611518	0.425582	0.918091	0.000000	-0.249630	-0.000000	0.152241	0.000000
